<?xml version="1.0" encoding="UTF-8"?><svg id="a" xmlns="http://www.w3.org/2000/svg" viewBox="0 0 170.08 170.08"><defs><style>.b{fill:#fff;}</style></defs><path class="b" d="M145.36,88.05c-15.87,4.82-31.38,1.43-39.9-4.44-23.76-16.39,7.08-73.27-21.81-71.45C41.87,14.81,3.02,72.71,37.93,126.72h0c.91,1.42,2.51,2.37,4.33,2.37,2.84,0,5.14-2.3,5.14-5.14,0-.77-.17-1.49-.48-2.15h0c-.05-.1-.09-.19-.14-.28v-.02C14.34,57.33,73.42,40.34,76.93,43.85c3.05,3.05-23.95,55.71,60.16,56.37h0c-1.01,1.75-1.93,3.69-2.7,5.78-3.8,10.24-2.73,20.07,2.39,21.97,4.98,1.85,11.95-4.5,15.82-14.26h0l.02-.04c.1-.26,.21-.52,.3-.79,.33-.88,.61-1.76,.87-2.63,7.09-22.44-5.74-23.01-8.44-22.19Z"/><path class="b" d="M26.89,136.27c-9.4,5.56-14.76,13.87-11.98,18.57,2.78,4.7,12.65,4,22.05-1.55,9.4-5.56,14.76-13.87,11.98-18.57-2.78-4.7-12.65-4-22.05,1.55Z"/></svg>