<?xml version="1.0" encoding="UTF-8"?><svg id="a" xmlns="http://www.w3.org/2000/svg" viewBox="0 0 340.16 85.04"><defs><style>.b{fill:#ed6c00;}.c{fill:#fff;}</style></defs><g><path class="b" d="M97.51,44.11c-8.37,2.54-16.54,.76-21.03-2.34-12.53-8.64,3.73-38.63-11.5-37.67-22.03,1.39-42.51,31.92-24.1,60.39h0c.48,.75,1.32,1.25,2.28,1.25,1.5,0,2.71-1.21,2.71-2.71,0-.41-.09-.79-.25-1.13h0c-.03-.05-.05-.1-.07-.15h0c-17.1-33.84,14.05-42.8,15.9-40.95,1.61,1.61-12.63,29.37,31.72,29.72h0c-.53,.92-1.02,1.95-1.42,3.04-2,5.4-1.44,10.58,1.26,11.58,2.62,.97,6.3-2.37,8.34-7.52h0v-.02c.06-.14,.12-.28,.17-.42,.17-.46,.32-.93,.46-1.38,3.74-11.83-3.03-12.13-4.45-11.7Z"/><path class="b" d="M35.05,69.53c-4.95,2.93-7.78,7.31-6.32,9.79,1.46,2.48,6.67,2.11,11.62-.82,4.95-2.93,7.78-7.31,6.32-9.79-1.47-2.48-6.67-2.11-11.62,.82Z"/></g><g><g><path class="c" d="M151.22,47.98c0,5.76-4.49,8.71-10.8,8.71h-13.34c-1.04,0-1.32-.5-1.32-1.32V28.11c0-.82,.27-1.32,1.32-1.32h12.7c7.4,0,10.57,3.95,10.57,8.21,0,4.58-2.9,6.03-3.31,6.22,.36,.14,4.17,1.86,4.17,6.76Zm-7.21-.68c0-2.13-1.59-2.77-3.77-2.77h-1.04c-1.04,0-1.32-.5-1.32-1.32v-3.45c0-.82,.27-1.32,1.32-1.32h.59c2.63,0,3.77-.95,3.77-2.72,0-2.04-1.41-2.54-3.77-2.54h-6.9v17.06h7.62c2.22,0,3.49-.91,3.49-2.95Z"/><path class="c" d="M179.4,51.66v3.72c0,.82-.27,1.32-1.32,1.32h-20.33c-1.04,0-1.32-.5-1.32-1.32V28.16c0-.82,.27-1.32,1.32-1.32h19.56c1.04,0,1.32,.5,1.32,1.32v3.77c0,.82-.27,1.32-1.32,1.32h-13.7v4.95h12.16c1.04,0,1.32,.5,1.32,1.32v3.54c0,.82-.27,1.32-1.32,1.32h-12.16v5.99h14.47c1.04,0,1.32,.5,1.32,1.32Z"/><path class="c" d="M210.25,56.69h-4.76c-1,0-1.36-.27-1.72-1.36l-1.27-3.58h-11.12l-1.27,3.58c-.36,1.09-.73,1.36-1.72,1.36h-4.76c-1,0-1-.73-.77-1.27l10.07-27.18c.36-.95,.86-1.41,1.86-1.41h4.36c1,0,1.45,.45,1.86,1.41l10.03,27.18c.23,.54,.23,1.27-.77,1.27Zm-9.89-11.3l-3.4-10.03-3.4,10.03h6.81Z"/><path class="c" d="M235.13,28.16v3.77c0,.82-.27,1.32-1.32,1.32h-6.94v22.14c0,1.04-.5,1.32-1.32,1.32h-4.49c-.82,0-1.32-.27-1.32-1.32v-22.14h-6.99c-1.04,0-1.32-.5-1.32-1.32v-3.77c0-.82,.27-1.32,1.32-1.32h21.05c1.04,0,1.32,.5,1.32,1.32Z"/><path class="c" d="M254.41,51.79v3.58c0,.82-.27,1.32-1.32,1.32h-12.84c-1.04,0-1.32-.5-1.32-1.32v-3.58c0-.82,.27-1.32,1.32-1.32h2.86v-17.33h-2.77c-1.04,0-1.32-.5-1.32-1.32v-3.67c0-.82,.27-1.32,1.32-1.32h12.61c1.04,0,1.32,.5,1.32,1.32v3.67c0,.82-.27,1.32-1.32,1.32h-2.72v17.33h2.86c1.04,0,1.32,.5,1.32,1.32Z"/><path class="c" d="M288.79,28.11v27.27c0,1.04-.5,1.32-1.32,1.32h-4.36c-.82,0-1.32-.27-1.32-1.32v-15.38l-4.54,7.94c-.23,.36-.64,.95-1.32,.95h-2.27c-.68,0-1.04-.59-1.27-.95l-4.58-7.94v15.38c0,1.04-.5,1.32-1.32,1.32h-4.49c-.82,0-1.32-.27-1.32-1.32V28.11c0-.82,.27-1.32,1.32-1.32h4.49c1.54,0,1.72,1,2.09,1.54l6.22,11.16,6.26-11.16c.32-.54,.54-1.54,2.04-1.54h4.36c1.04,0,1.32,.5,1.32,1.32Z"/></g><g><path class="c" d="M303.66,49.56v.94c0,.2-.07,.33-.33,.33h-1.73v5.53c0,.26-.13,.33-.33,.33h-1.12c-.2,0-.33-.07-.33-.33v-5.53h-1.75c-.26,0-.33-.12-.33-.33v-.94c0-.2,.07-.33,.33-.33h5.26c.26,0,.33,.12,.33,.33Z"/><path class="c" d="M311.81,49.55v6.81c0,.26-.13,.33-.33,.33h-1.09c-.2,0-.33-.07-.33-.33v-3.84l-1.13,1.98c-.06,.09-.16,.24-.33,.24h-.57c-.17,0-.26-.15-.32-.24l-1.14-1.98v3.84c0,.26-.13,.33-.33,.33h-1.12c-.2,0-.33-.07-.33-.33v-6.81c0-.2,.07-.33,.33-.33h1.12c.39,0,.43,.25,.52,.39l1.55,2.79,1.56-2.79c.08-.14,.14-.39,.51-.39h1.09c.26,0,.33,.12,.33,.33Z"/></g></g></svg>